HIERARCHY
ROOT pelvis
{
  OFFSET 0 100 0
  CHANNELS 6 Xposition Yposition Zposition Zrotation Xrotation Yrotation
  JOINT pelvis_right_femur
  {
    OFFSET -10.78128 -3.44521 -0.5502486
    CHANNELS 3 Zrotation Xrotation Yrotation
    JOINT right_femur_tibia
    {
      OFFSET -0.8047443 -44.0398 -0.1307829
      CHANNELS 3 Zrotation Xrotation Yrotation
      JOINT right_tibia_foot
      {
        OFFSET 3.006224 -47.83518 -5
        CHANNELS 3 Zrotation Xrotation Yrotation
        End Site
        {
          OFFSET 0 -5 15
        }
      }
    }
  }
  JOINT pelvis_left_femur
  {
    OFFSET 10.78128 -3.44521 -0.5502486
    CHANNELS 3 Zrotation Xrotation Yrotation
    JOINT left_femur_tibia
    {
      OFFSET 0.8047443 -44.0398 -0.1307829
      CHANNELS 3 Zrotation Xrotation Yrotation
      JOINT left_tibia_foot
      {
        OFFSET -4.370144 -48.10324 -4.275266
        CHANNELS 3 Zrotation Xrotation Yrotation
        End Site
        {
          OFFSET 0 -5 15
        }
      }
    }
  }
  JOINT pelvis_spine1
  {
    OFFSET 0 6.468898 -3.129235
    CHANNELS 3 Zrotation Xrotation Yrotation
    JOINT spine1
    {
      OFFSET 0 23.15396 4.99043
      CHANNELS 3 Zrotation Xrotation Yrotation
      JOINT spine2
      {
        OFFSET 0 20.79997 -5.064912
        CHANNELS 3 Zrotation Xrotation Yrotation
        JOINT neck
        {
          OFFSET 0 14.38658 9.616178
          CHANNELS 3 Zrotation Xrotation Yrotation
          End Site
          {
            OFFSET 0 20 0
          }
        }
      }
      JOINT right_manubrium
      {
        OFFSET -5.722621 16.35077 3.967754
        CHANNELS 3 Zrotation Xrotation Yrotation
        JOINT right_clavicle
        {
          OFFSET -13.16364 1.694482 -4.693211
          CHANNELS 3 Zrotation Xrotation Yrotation
          JOINT right_humerus
          {
            OFFSET -28.5034 -0.3100689 -2.792744
            CHANNELS 3 Zrotation Xrotation Yrotation
            JOINT right_radius
            {
              OFFSET -25.15693 0.02248979 -1.271978
              CHANNELS 3 Zrotation Xrotation Yrotation
              End Site
              {
                OFFSET -15 0 0
              }
            }
          }
        }
      }
      JOINT left_manubrium
      {
        OFFSET 5.722621 16.35077 3.967754
        CHANNELS 3 Zrotation Xrotation Yrotation
        JOINT left_clavicle
        {
          OFFSET 13.16364 1.694482 -4.693211
          CHANNELS 3 Zrotation Xrotation Yrotation
          JOINT left_humerus
          {
            OFFSET 29.39168 -1.063119 -2.237045
            CHANNELS 3 Zrotation Xrotation Yrotation
            JOINT left_radius
            {
              OFFSET 24.59957 -0.9528479 0.9047498
              CHANNELS 3 Zrotation Xrotation Yrotation
              End Site
              {
                OFFSET 15 -0 -0
              }
            }
          }
        }
      }
    }
  }
}
MOTION
Frames: 19
Frame Time: 0.0416666666667
0 103.5113 0 2.648413 0.7358614 0.2110402 3.14551 -15.05748 11.31944 -0 38.14934 -0 -4.42627 -18.23249 -3.072866 -9.405849 8.954079 -22.17108 -0 4.5681 -0 22.58165 -9.621613 30.54436 -2.628183 -2.847493 6.090575 1.487328 11.12289 -6.136835 1.910168 22.16115 5.437105 3.108274 -23.30894 8.594661 5.971397 -19.82271 10.32206 85.26642 37.76932 -17.44223 -0 0 14.91468 -8.991858 9.922732 5.017447 6.254688 -20.78405 -2.883411 -92.00177 23.44272 20.63358 0 0 -16.84816 14.29224 13.45174 -0.2472891
0.3689922 103.6324 1.582293 2.013569 1.208145 0.4102336 4.36076 -17.42077 12.00113 -0 38.74756 -0 -4.763198 -16.76795 -2.706007 -9.064294 8.543849 -22.00138 -0 5.306861 -0 23.35445 -9.49519 30.89142 -2.612954 -2.927478 6.254067 1.413401 11.05831 -6.064699 1.91538 22.21415 5.377055 3.024097 -23.23014 8.610097 5.823119 -20.01343 10.22616 85.24862 38.011 -17.30831 -0 0 15.03927 -8.926134 9.913853 5.01931 6.268836 -20.79563 -2.870821 -91.96844 23.70152 20.75575 0 0 -17.33494 14.31565 13.4375 -0.09487411
0.6767843 103.4607 3.615822 0.9962513 1.105469 0.5648702 5.03836 -21.7391 8.662571 -0 32.85974 -0 -5.958882 -13.18576 -1.602011 -7.810414 10.45845 -21.43039 -0 6.106948 -0 16.4746 -14.80211 28.08846 -2.458474 -2.833423 6.108155 1.616266 10.97831 -6.328831 1.938706 22.10516 5.373333 2.925719 -23.66499 8.72749 5.876945 -19.8503 10.34847 85.70344 37.62851 -18.07301 -0 0 14.74039 -8.35094 9.718448 4.637256 6.163055 -20.81287 -2.801803 -92.22351 24.10625 20.97307 0 0 -17.41312 13.79326 13.83694 0.4529653
0.9720544 103.1994 5.906862 0.2800959 1.509045 0.6877411 5.840898 -24.83543 7.974027 -0 30.42077 -0 -6.436305 -11.08782 -1.284144 -7.124727 11.06121 -21.01214 -0 6.674952 -0 13.6077 -17.07312 26.69603 -2.338446 -2.79353 6.040107 1.754154 10.88003 -6.512621 1.955104 22.03672 5.360056 2.822909 -23.9881 8.830871 5.864438 -19.79163 10.41119 86.03979 37.38868 -18.61127 -0 0 14.57076 -7.881469 9.547216 4.349183 6.087609 -20.81908 -2.732823 -92.43433 24.5177 21.20611 0 0 -17.60458 13.36599 14.15323 0.9514135
1.254014 102.816 8.627672 -0.3268589 1.915767 0.8511067 6.462635 -28.18051 6.647599 -0 27.08878 -0 -7.346049 -8.327378 -0.6408246 -6.534976 11.76565 -19.94881 -0 7.889828 -0 11.45195 -18.83051 24.72299 -2.1986 -2.678076 5.923378 1.930257 10.74315 -6.715599 1.951222 21.93767 5.385205 2.748867 -24.3752 8.913416 5.842643 -19.66507 10.51265 86.33021 37.03543 -19.09545 -0 0 14.34035 -7.50337 9.369053 4.168679 5.9686 -20.78348 -2.637837 -92.64247 24.91585 21.43004 0 0 -17.71276 12.74076 14.42149 1.611026
1.533067 102.373 11.79217 -0.8489271 2.459908 1.08911 7.05655 -30.98467 5.782072 -0 24.19794 -0 -8.088332 -5.823713 -0.1149968 -6.061019 12.29685 -18.9006 -0 9.439137 -0 9.70423 -19.90888 22.7551 -2.0772 -2.558226 5.808233 2.093069 10.60007 -6.890736 1.93691 21.84633 5.423454 2.694614 -24.72323 8.976626 5.811304 -19.54167 10.60782 86.548 36.70482 -19.46739 -0 0 14.13246 -7.221004 9.212172 4.068477 5.85081 -20.73211 -2.544982 -92.81861 25.26636 21.62456 0 0 -17.79143 12.12004 14.62573 2.252199
1.816537 101.9281 15.48525 -1.325699 3.000804 1.427318 7.589352 -33.21505 4.951412 -0 21.42667 -0 -8.866799 -3.258317 0.4344405 -5.619651 12.78904 -17.64825 -0 11.84967 -0 7.935389 -20.32257 20.3848 -1.968254 -2.41677 5.691976 2.24441 10.45334 -7.038328 1.910281 21.75952 5.475692 2.665086 -25.03062 9.010596 5.772186 -19.40646 10.70282 86.69178 36.39482 -19.72363 -0 0 13.92225 -7.054593 9.086618 4.064454 5.725836 -20.66546 -2.459783 -92.94438 25.5619 21.77013 0 0 -17.85214 11.48554 14.7479 2.89281
2.115478 101.5789 19.75366 -1.822451 3.501718 1.86713 8.174044 -34.57826 4.407994 -0 19.2345 -0 -9.579203 -0.9090852 0.8624635 -5.140022 13.13187 -16.32486 -0 15.32028 -0 5.813802 -19.96765 17.63551 -1.877267 -2.267256 5.587877 2.37063 10.32062 -7.149227 1.876558 21.6856 5.531253 2.657556 -25.27008 9.013533 5.731631 -19.27154 10.78931 86.76706 36.13747 -19.86743 -0 0 13.71975 -6.999765 9.002399 4.13854 5.60406 -20.59583 -2.395014 -93.00854 25.78872 21.85465 0 0 -17.91074 10.89683 14.78722 3.480465
2.440176 101.4455 24.62642 -2.373293 3.870377 2.372801 8.845671 -34.78324 4.178451 -0 17.81544 -0 -10.19277 1.001226 1.096382 -4.5676 13.18131 -14.9175 -0 20.21537 -0 3.205292 -18.62248 14.52024 -1.80174 -2.109186 5.507853 2.461588 10.21322 -7.216498 1.838887 21.62874 5.581812 2.670328 -25.42365 8.979499 5.690349 -19.14175 10.8639 86.77716 35.95123 -19.89638 -0 0 13.52337 -7.061785 8.967475 4.286608 5.486726 -20.53044 -2.360742 -92.99918 25.94492 21.87094 0 0 -17.9921 10.37432 14.73738 4.005837
2.797547 101.6571 30.07288 -2.978807 4.032642 2.861208 9.577894 -33.55648 4.301679 -0 17.28488 -0 -10.61594 2.077054 1.049984 -3.880445 12.6605 -13.50587 -0 26.70793 -0 0.1918418 -16.11974 11.30997 -1.740524 -1.945048 5.466397 2.504746 10.14312 -7.231383 1.800883 21.59357 5.618607 2.701453 -25.47081 8.903029 5.648169 -19.02639 10.92219 86.7207 35.85441 -19.80082 -0 0 13.34135 -7.24914 8.989467 4.505211 5.377305 -20.47608 -2.364794 -92.90793 26.02569 21.81699 0 0 -18.11416 9.942922 14.59403 4.455272
3.185829 102.3123 35.97894 -3.551464 3.901338 3.198448 10.18301 -30.7477 4.634619 -0 17.40269 -0 -10.78218 1.961965 0.7221835 -3.133905 11.20181 -12.17943 -0 34.75305 -0 -2.856411 -12.50979 8.480612 -1.69228 -1.777108 5.480352 2.486735 10.1173 -7.183792 1.76491 21.58359 5.634537 2.748856 -25.39189 8.778213 5.599849 -18.93891 10.95987 86.58705 35.86146 -19.55678 -0 0 13.192 -7.579628 9.075235 4.799983 5.27897 -20.4362 -2.408819 -92.7301 26.029 21.69954 0 0 -18.29202 9.614815 14.35226 4.828989
3.591857 103.4301 42.13392 -3.88758 3.408582 3.236946 10.34292 -26.46574 4.89568 -0 17.52787 -0 -10.69819 0.561247 0.2330621 -2.493105 8.437363 -11.0501 -0 43.85113 -0 -5.390678 -8.328022 6.57396 -1.658274 -1.611659 5.5672 2.395175 10.13442 -7.063637 1.731173 21.59957 5.626954 2.810702 -25.17138 8.601524 5.53426 -18.8993 10.97273 86.35135 35.97883 -19.12176 -0 0 13.11285 -8.081781 9.230278 5.18679 5.197949 -20.40983 -2.481828 -92.46852 25.95039 21.5364 0 0 -18.52613 9.392473 14.00976 5.132604
3.993541 104.9133 48.26953 -3.707022 2.528363 2.902488 9.764927 -21.0989 4.800787 -0 16.79884 -0 -10.45441 -1.692724 -0.2192953 -2.188836 4.208985 -10.16887 -0 52.9395 -0 -6.928191 -4.603145 5.893424 -1.642917 -1.460555 5.741299 2.223398 10.17897 -6.864606 1.696395 21.63702 5.601093 2.884934 -24.80662 8.375394 5.432949 -18.93393 10.95772 85.97384 36.1964 -18.43709 -0 0 13.16342 -8.790752 9.45507 5.691659 5.144032 -20.38929 -2.554138 -92.13894 25.78551 21.36106 0 0 -18.79586 9.260515 13.57128 5.380878
4.365639 106.5579 54.1545 -2.844889 1.318683 2.283856 8.43626 -15.18117 4.297012 -0 14.69859 -0 -10.14027 -3.936137 -0.4976603 -2.312601 -1.235736 -9.445431 -0 60.4067 -0 -7.310901 -2.366136 6.339283 -1.652827 -1.340324 6.007449 1.976661 10.21966 -6.58965 1.653745 21.6848 5.571551 2.968432 -24.31747 8.111676 5.273405 -19.06999 10.91492 85.40918 36.47871 -17.44503 -0 0 13.41585 -9.733789 9.739471 6.342473 5.128396 -20.35919 -2.578768 -91.77447 25.53546 21.2228 0 0 -19.05676 9.180312 13.05414 5.599569
4.682706 108.1064 59.68954 -1.490883 -0.07151509 1.598179 6.762474 -9.217711 3.628551 -0 11.57167 -0 -9.757995 -5.482164 -0.6030966 -2.577417 -7.269811 -8.627831 -0 64.40244 -0 -6.769578 -1.903757 7.596424 -1.69289 -1.266068 6.355936 1.674865 10.2179 -6.254384 1.595352 21.72749 5.558028 3.056163 -23.74756 7.830711 5.038247 -19.32431 10.84925 84.62836 36.76595 -16.12025 -0 0 13.92793 -10.90988 10.05992 7.15274 5.157373 -20.2996 -2.50708 -91.42192 25.2144 21.17718 0 0 -19.25254 9.092436 12.48944 5.826322
4.926423 109.3045 64.91662 -0.1745101 -1.46476 1.016426 5.377761 -3.60297 3.07468 -0 8.439093 -0 -9.275014 -6.43646 -0.6087181 -2.40193 -13.14588 -7.455255 -0 63.48281 -0 -5.742318 -2.598369 9.424864 -1.76273 -1.24373 6.763739 1.34711 10.14537 -5.883636 1.516538 21.75119 5.576526 3.142139 -23.15071 7.554542 4.725954 -19.6931 10.77031 83.63919 36.98976 -14.49339 -0 0 14.71453 -12.28119 10.38521 8.108656 5.227064 -20.19323 -2.311761 -91.12739 24.84685 21.26647 0 0 -19.33354 8.936652 11.91392 6.098986
5.106946 109.9451 69.94625 0.5957048 -2.723085 0.5499371 4.72804 1.418235 2.651152 -0 6.223798 -0 -8.750635 -7.562058 -0.5667541 -1.387857 -18.24299 -5.904959 -0 57.37354 -0 -4.626451 -3.580216 11.63034 -1.857373 -1.267117 7.200446 1.022351 9.997896 -5.503111 1.418591 21.74884 5.632381 3.221407 -22.57306 7.299487 4.354469 -20.15111 10.68998 82.48984 37.09136 -12.64814 -0 0 15.73903 -13.78182 10.68506 9.170128 5.322526 -20.03023 -2.000315 -90.92173 24.45466 21.50404 0 0 -19.26442 8.676837 11.3559 6.436767
5.273945 109.9251 74.89873 0.6598812 -3.72041 0.1105671 4.818571 5.719505 2.206825 -0 5.297298 -0 -8.300696 -9.488723 -0.4831517 0.3233871 -22.17801 -4.250572 -0 47.30472 -0 -3.666218 -4.313563 13.86166 -1.969706 -1.319551 7.631728 0.7249604 9.797275 -5.134898 1.308866 21.72212 5.718322 3.290371 -22.04646 7.073453 3.957637 -20.65601 10.62074 81.263 37.02882 -10.70905 -0 0 16.91987 -15.32578 10.93207 10.27768 5.419223 -19.80805 -1.614382 -90.81636 24.05079 21.87197 0 0 -19.0218 8.308262 10.82825 6.834604
5.49715 109.2919 79.90174 0.2049135 -4.320273 -0.3794959 5.292186 9.227109 1.724655 -0 5.625752 -0 -7.93272 -12.13665 -0.35498 2.17508 -24.81346 -2.86872 -0 35.59857 -0 -2.961812 -4.615049 15.67258 -2.089486 -1.3757 8.020207 0.4746945 9.584717 -4.799895 1.199611 21.6796 5.815868 3.345586 -21.59134 6.876954 3.580231 -21.1511 10.57585 80.07259 36.78221 -8.839349 -0 0 18.13547 -16.80738 11.10314 11.35412 5.486147 -19.5337 -1.221055 -90.80493 23.64836 22.3251 0 0 -18.60297 7.84623 10.335 7.277413
